<svg xmlns="http://www.w3.org/2000/svg" viewBox="0 0 400 250" width="400" height="250" role="img" aria-label="Diecast Car Collection">
  <defs>
    <linearGradient id="bg" x1="0" y1="0" x2="1" y2="1">
      <stop offset="0" stop-color="#1f2d3d"/>
      <stop offset="1" stop-color="#2a2a2c"/>
    </linearGradient>
  </defs>
  <rect width="400" height="250" fill="url(#bg)"/>

  <!-- Material Design Icons "car-sports" (Apache 2.0), centered -->
  <g transform="translate(100 45) scale(6.67)">
    <path fill="#7eb2dd" d="M12 8.5H7L4 11H3c-1.11 0-2 .89-2 2v3h2.17c.43 1.2 1.56 2 2.83 2s2.4-.8 2.82-2h6.35c.43 1.2 1.56 2 2.83 2s2.4-.8 2.82-2H23v-1c0-1.11-1.03-1.47-2-2zM5.25 12l2.25-2h4l4 2zM6 13.5A1.5 1.5 0 0 1 7.5 15A1.5 1.5 0 0 1 6 16.5A1.5 1.5 0 0 1 4.5 15A1.5 1.5 0 0 1 6 13.5m12 0a1.5 1.5 0 0 1 1.5 1.5a1.5 1.5 0 0 1-1.5 1.5a1.5 1.5 0 0 1-1.5-1.5a1.5 1.5 0 0 1 1.5-1.5"/>
  </g>
</svg>
